<svg width="36" height="36" viewBox="0 0 36 36" fill="none" xmlns="http://www.w3.org/2000/svg">
<path d="M24 9C24 6.17157 24 4.75735 23.1213 3.87868C22.2426 3 20.8284 3 18 3C15.1716 3 13.7574 3 12.8787 3.87868C12 4.75735 12 6.17157 12 9" stroke="#1E71CA" stroke-width="2.25"/>
<path d="M15 22.5H9C8.2929 22.5 7.93934 22.5 7.71968 22.7196C7.5 22.9394 7.5 23.2929 7.5 24V25.5C7.5 26.2071 7.5 26.5606 7.71968 26.7804C7.93934 27 8.2929 27 9 27H15C15.7071 27 16.0606 27 16.2804 26.7804C16.5 26.5606 16.5 26.2071 16.5 25.5V24C16.5 23.2929 16.5 22.9394 16.2804 22.7196C16.0606 22.5 15.7071 22.5 15 22.5Z" stroke="#1E71CA" stroke-width="2.25" stroke-linejoin="round"/>
<path d="M9 9.75V22.5M9 32.25V27.75" stroke="#1E71CA" stroke-width="2.25" stroke-linecap="round"/>
<path d="M27 9.75V15M27 32.25V21" stroke="#1E71CA" stroke-width="2.25" stroke-linecap="round"/>
<path d="M3 21C3 15.3432 3 12.5147 4.75736 10.7574C6.51473 9 9.34314 9 15 9H21C26.6568 9 29.4853 9 31.2426 10.7574C32.2224 11.7371 32.6559 13.0498 32.8478 15M33 21C33 26.6568 33 29.4853 31.2426 31.2426C29.4853 33 26.6568 33 21 33H15C9.34317 33 6.51471 33 4.75736 31.2426C3.77759 30.2628 3.34406 28.9501 3.15224 27" stroke="#1E71CA" stroke-width="2.25" stroke-linecap="round"/>
</svg>
