<svg width="12" height="12" viewBox="0 0 12 12" fill="none" xmlns="http://www.w3.org/2000/svg">
<path fill-rule="evenodd" clip-rule="evenodd" d="M2.974 0.625001H3.026C3.47524 0.624986 3.84985 0.624976 4.14724 0.664956C4.46114 0.707161 4.74454 0.799996 4.97228 1.02773C5.2 1.25547 5.29285 1.53887 5.33505 1.85276C5.37505 2.15016 5.375 2.52477 5.375 2.97401V9.026C5.375 9.47525 5.37505 9.84985 5.33505 10.1473C5.29285 10.4612 5.2 10.7446 4.97228 10.9723C4.74454 11.2 4.46114 11.2929 4.14724 11.3351C3.84985 11.3751 3.47524 11.375 3.026 11.375H2.97401C2.52477 11.375 2.15016 11.3751 1.85276 11.3351C1.53887 11.2929 1.25547 11.2 1.02773 10.9723C0.799996 10.7446 0.707161 10.4612 0.664956 10.1473C0.624976 9.84985 0.624986 9.47525 0.625001 9.026V2.974C0.624986 2.52476 0.624976 2.15015 0.664956 1.85276C0.707161 1.53887 0.799996 1.25547 1.02773 1.02773C1.25547 0.799996 1.53887 0.707161 1.85276 0.664956C2.15015 0.624976 2.52476 0.624986 2.974 0.625001ZM1.9527 1.40827C1.72197 1.43929 1.62322 1.4929 1.55806 1.55806C1.4929 1.62322 1.43929 1.72197 1.40827 1.9527C1.3758 2.19422 1.375 2.518 1.375 3V9C1.375 9.482 1.3758 9.8058 1.40827 10.0473C1.43929 10.2781 1.4929 10.3768 1.55806 10.442C1.62322 10.5071 1.72197 10.5607 1.9527 10.5918C2.19422 10.6242 2.518 10.625 3 10.625C3.48201 10.625 3.80579 10.6242 4.04731 10.5918C4.27804 10.5607 4.37679 10.5071 4.44195 10.442C4.5071 10.3768 4.56072 10.2781 4.59174 10.0473C4.62421 9.8058 4.625 9.482 4.625 9V3C4.625 2.518 4.62421 2.19422 4.59174 1.9527C4.56072 1.72197 4.5071 1.62322 4.44195 1.55806C4.37679 1.4929 4.27804 1.43929 4.04731 1.40827C3.80579 1.3758 3.48201 1.375 3 1.375C2.518 1.375 2.19422 1.3758 1.9527 1.40827ZM8.974 0.625001H9.026C9.47525 0.624986 9.84985 0.624976 10.1473 0.664956C10.4612 0.707161 10.7446 0.799996 10.9723 1.02773C11.2 1.25547 11.2929 1.53887 11.3351 1.85276C11.3751 2.15016 11.375 2.52477 11.375 2.97401V9.026C11.375 9.47525 11.3751 9.84985 11.3351 10.1473C11.2929 10.4612 11.2 10.7446 10.9723 10.9723C10.7446 11.2 10.4612 11.2929 10.1473 11.3351C9.84985 11.3751 9.47525 11.375 9.026 11.375H8.974C8.52475 11.375 8.15015 11.3751 7.85275 11.3351C7.53885 11.2929 7.25545 11.2 7.02775 10.9723C6.8 10.7446 6.70715 10.4612 6.66495 10.1473C6.62495 9.84985 6.625 9.47525 6.625 9.026V2.97401C6.625 2.52477 6.62495 2.15015 6.66495 1.85276C6.70715 1.53887 6.8 1.25547 7.02775 1.02773C7.25545 0.799996 7.53885 0.707161 7.85275 0.664956C8.15015 0.624976 8.52475 0.624986 8.974 0.625001ZM7.9527 1.40827C7.72195 1.43929 7.6232 1.4929 7.55805 1.55806C7.4929 1.62322 7.4393 1.72197 7.40825 1.9527C7.3758 2.19422 7.375 2.518 7.375 3V9C7.375 9.482 7.3758 9.8058 7.40825 10.0473C7.4393 10.2781 7.4929 10.3768 7.55805 10.442C7.6232 10.5071 7.72195 10.5607 7.9527 10.5918C8.1942 10.6242 8.518 10.625 9 10.625C9.482 10.625 9.8058 10.6242 10.0473 10.5918C10.2781 10.5607 10.3768 10.5071 10.442 10.442C10.5071 10.3768 10.5607 10.2781 10.5918 10.0473C10.6242 9.8058 10.625 9.482 10.625 9V3C10.625 2.518 10.6242 2.19422 10.5918 1.9527C10.5607 1.72197 10.5071 1.62322 10.442 1.55806C10.3768 1.4929 10.2781 1.43929 10.0473 1.40827C9.8058 1.3758 9.482 1.375 9 1.375C8.518 1.375 8.1942 1.3758 7.9527 1.40827Z" fill="white"/>
</svg>
