<svg width="20" height="20" viewBox="0 0 20 20" fill="none" xmlns="http://www.w3.org/2000/svg">
<g>
<path d="M8.33333 8.33317C10.1743 8.33317 11.6667 6.84079 11.6667 4.99984C11.6667 3.15889 10.1743 1.6665 8.33333 1.6665C6.49238 1.6665 5 3.15889 5 4.99984C5 6.84079 6.49238 8.33317 8.33333 8.33317Z" stroke="#212121" stroke-width="1.25"/>
<path d="M15.0001 14.5833C15.0001 16.6541 15.0001 18.3333 8.33342 18.3333C1.66675 18.3333 1.66675 16.6541 1.66675 14.5833C1.66675 12.5124 4.65175 10.8333 8.33342 10.8333C12.0151 10.8333 15.0001 12.5124 15.0001 14.5833Z" stroke="#212121" stroke-width="1.25"/>
<path d="M15.8333 7.2033L15.39 7.6433C15.448 7.70175 15.5171 7.74814 15.5932 7.7798C15.6693 7.81145 15.7509 7.82775 15.8333 7.82775C15.9157 7.82775 15.9973 7.81145 16.0734 7.7798C16.1495 7.74814 16.2185 7.70175 16.2766 7.6433L15.8333 7.2033ZM15.4533 9.95163C15.0475 9.64246 14.6825 9.39496 14.3883 9.07413C14.1158 8.77663 13.9583 8.46996 13.9583 8.08246H12.7083C12.7083 8.87413 13.0533 9.4683 13.4666 9.91913C13.8591 10.3466 14.3641 10.6941 14.695 10.9458L15.4533 9.95163ZM13.9583 8.08246C13.9583 7.73913 14.1583 7.46246 14.4141 7.34913C14.6366 7.2508 14.9891 7.2408 15.39 7.6433L16.2766 6.76246C15.5516 6.0333 14.6558 5.87496 13.9083 6.2058C13.5485 6.36971 13.2438 6.63416 13.0309 6.96727C12.818 7.30039 12.706 7.68713 12.7083 8.08246H13.9583ZM14.695 10.9458C14.8183 11.04 14.98 11.1625 15.1491 11.2591C15.3183 11.3558 15.555 11.4583 15.8333 11.4583V10.2083C15.8616 10.2083 15.8475 10.2175 15.765 10.1716C15.6816 10.125 15.5883 10.055 15.4533 9.95163L14.695 10.9458ZM16.9716 10.9458C17.3025 10.6933 17.8075 10.3466 18.1991 9.91913C18.6133 9.4683 18.9583 8.8733 18.9583 8.0833H17.7083C17.7083 8.46996 17.5508 8.77663 17.2783 9.07496C16.9841 9.39496 16.6191 9.64246 16.2133 9.95163L16.9716 10.9458ZM18.9583 8.0833C18.9583 7.24996 18.4708 6.5208 17.7583 6.2058C17.0116 5.87496 16.1141 6.0333 15.39 6.76246L16.2766 7.6433C16.6766 7.2408 17.03 7.2508 17.2516 7.34913C17.3899 7.41484 17.5065 7.51886 17.5875 7.64886C17.6684 7.77885 17.7103 7.93017 17.7083 8.0833H18.9583ZM16.2133 9.95163C16.1137 10.0309 16.0096 10.1043 15.9016 10.1716C15.8191 10.2183 15.805 10.2083 15.8333 10.2083V11.4583C16.1116 11.4583 16.3475 11.3558 16.5166 11.2591C16.6866 11.1633 16.8483 11.04 16.9716 10.9458L16.2133 9.95163Z" fill="#212121"/>
</g>
</svg>
